<svg xmlns="http://www.w3.org/2000/svg" viewBox="0 0 792 455.98"><defs>
<style>.cls-1{fill:#fff;}.cls-2{fill:#d1d3d4;opacity:0.3;}</style></defs>
<g id="Layer_3" data-name="Layer 3">
<polygon class="cls-2" points="0.5 455.98 792.5 0 792.5 455.98 0.5 455.98"/>
<polygon class="cls-2" points="567.5 0 0.47 326.45 0.47 0 567.5 0"/>
<polygon class="cls-2" points="2.13 0 403.5 455.98 2.13 455.98 2.13 0"/>
<polygon class="cls-2" points="792 455.98 375.09 0 792 0 792 455.98"/>
<polygon class="cls-2" points="334.33 423.12 763.49 176.04 763.49 423.12 334.33 423.12"/>
<polygon class="cls-2" points="403.5 51.09 96.25 227.99 96.25 51.09 403.5 51.09"/>
<polygon class="cls-2" points="72.73 176.04 290.22 423.12 72.73 423.12 72.73 176.04"/>
<polygon class="cls-2" points="615.45 316.17 389.54 69.09 615.45 69.09 615.45 316.17"/></g></svg>
